<?xml version="1.0" encoding="UTF-8" standalone="no"?>
<!DOCTYPE svg PUBLIC "-//W3C//DTD SVG 1.1//EN" "http://www.w3.org/Graphics/SVG/1.1/DTD/svg11.dtd">
<svg width="100%" height="100%" viewBox="0 0 4883 800" version="1.1" xmlns="http://www.w3.org/2000/svg" xmlns:xlink="http://www.w3.org/1999/xlink" xml:space="preserve" xmlns:serif="http://www.serif.com/" style="fill-rule:evenodd;clip-rule:evenodd;stroke-linejoin:round;stroke-miterlimit:2;">
    <g transform="matrix(1,0,0,1,-482.72,-1133.31)">
        <g id="export" transform="matrix(1,0,0,1,-1980,-3450)">
            <path d="M3007.48,5298.13L2889.28,5366.37C2869.72,5377.66 2847.89,5383.31 2826.07,5383.31C2804.24,5383.31 2782.41,5377.66 2762.86,5366.37L2525.93,5229.58C2486.82,5207 2462.72,5165.27 2462.72,5120.1L2462.72,4846.51C2462.72,4801.35 2486.82,4759.62 2525.93,4737.03L2762.86,4600.24C2782.41,4588.95 2804.24,4583.31 2826.07,4583.31C2847.89,4583.31 2869.72,4588.95 2889.28,4600.24L3007.48,4668.48L3007.48,4716.6L2868.45,4636.33C2855.33,4628.76 2840.7,4624.97 2826.07,4624.97C2811.43,4624.97 2796.8,4628.76 2783.69,4636.33C2782.71,4636.89 2546.9,4773.04 2546.76,4773.12C2520.54,4788.26 2504.39,4816.23 2504.39,4846.51L2504.39,5120.1C2504.39,5150.38 2520.54,5178.36 2546.76,5193.49C2546.76,5193.49 2783.69,5330.29 2783.69,5330.29C2796.8,5337.86 2811.43,5341.64 2826.07,5341.64C2840.7,5341.64 2855.33,5337.86 2868.45,5330.29L3007.48,5250.02L3007.48,5298.13Z" style="fill:rgb(252,174,33);"/>
            <g transform="matrix(1.06418,0,0,1.06418,1981.77,4230.74)">
                <g transform="matrix(1,0,0,1,-2467.06,-1544.32)">
                    <path d="M3274.35,2396.41C3292.32,2396.41 3307.41,2391.43 3319.61,2381.47C3331.82,2371.51 3337.92,2359.21 3337.92,2344.56C3337.92,2332.84 3333.97,2322.88 3326.06,2314.67C3318.15,2306.47 3307.75,2299.1 3294.86,2292.55C3281.97,2286.01 3268,2279.62 3252.96,2273.37C3238.12,2267.12 3223.23,2260.33 3208.28,2253C3193.34,2245.68 3179.62,2237.04 3167.12,2227.08C3154.62,2217.12 3144.56,2205.1 3136.95,2191.04C3129.33,2176.98 3125.52,2160.08 3125.52,2140.36C3125.52,2115.94 3131.67,2094.61 3143.98,2076.34C3156.28,2058.08 3173.57,2043.87 3195.83,2033.72C3218.1,2023.56 3243.98,2018.48 3273.47,2018.48C3320.54,2018.48 3365.66,2030.2 3408.82,2053.64L3371.91,2128.64C3352.77,2116.53 3334.51,2108.33 3317.12,2104.03C3299.74,2099.73 3285.29,2097.58 3273.76,2097.58C3256.38,2097.58 3242.46,2101.25 3232.01,2108.57C3221.57,2115.89 3216.34,2125.61 3216.34,2137.72C3216.34,2148.07 3220.05,2156.96 3227.47,2164.38C3234.9,2171.8 3244.71,2178.44 3256.92,2184.3C3269.12,2190.16 3282.45,2196.12 3296.91,2202.17C3311.95,2208.42 3327.18,2215.26 3342.61,2222.68C3358.04,2230.1 3372.3,2238.99 3385.38,2249.34C3398.47,2259.69 3408.97,2272.19 3416.88,2286.84C3424.79,2301.49 3428.74,2319.17 3428.74,2339.87C3428.74,2366.24 3422.01,2389.62 3408.53,2410.04C3395.05,2430.45 3376.5,2446.46 3352.87,2458.08C3329.23,2469.7 3302.08,2475.51 3271.42,2475.51C3243.1,2475.51 3214.68,2470.49 3186.17,2460.43C3157.65,2450.37 3131.58,2436.16 3107.94,2417.8L3150.13,2346.32C3161.07,2355.89 3173.67,2364.48 3187.92,2372.1C3202.18,2379.71 3216.88,2385.67 3232.01,2389.97C3247.15,2394.26 3261.26,2396.41 3274.35,2396.41Z" style="fill:rgb(87,22,184);fill-rule:nonzero;"/>
                    <path d="M3493.2,2027.27L3582.26,2027.27L3807.85,2322.58L3807.85,2027.27L3897.49,2027.27L3897.49,2466.72L3806.97,2466.72L3581.09,2170.83L3581.09,2466.72L3493.2,2466.72L3493.2,2027.27Z" style="fill:rgb(87,22,184);fill-rule:nonzero;"/>
                    <rect x="3973.67" y="2027.27" width="89.648" height="439.453" style="fill:rgb(87,22,184);fill-rule:nonzero;"/>
                    <path d="M4139.49,2466.72L4139.49,2027.27L4291.24,2027.27C4345.74,2027.27 4388.31,2040.21 4418.98,2066.09C4449.64,2091.97 4464.97,2127.08 4464.97,2171.41C4464.97,2200.91 4458.04,2226.49 4444.17,2248.17C4430.31,2269.85 4410.43,2286.65 4384.55,2298.56C4358.68,2310.47 4327.57,2316.43 4291.24,2316.43L4228.84,2316.43L4228.84,2466.72L4139.49,2466.72ZM4282.16,2101.98L4228.84,2101.98L4228.84,2242.02L4282.16,2242.02C4312.24,2242.02 4335.09,2235.38 4350.72,2222.1C4366.34,2208.82 4374.15,2192.02 4374.15,2171.71C4374.15,2151.39 4366.34,2134.69 4350.72,2121.61C4335.09,2108.52 4312.24,2101.98 4282.16,2101.98Z" style="fill:rgb(87,22,184);fill-rule:nonzero;"/>
                    <path d="M4511.85,2027.27L4773.76,2027.27L4773.76,2106.37L4592.71,2106.37L4592.71,2201.3L4762.04,2201.3L4762.04,2280.4L4592.71,2280.4L4592.71,2387.62L4782.55,2387.62L4782.55,2466.72L4511.85,2466.72L4511.85,2027.27Z" style="fill:rgb(87,22,184);fill-rule:nonzero;"/>
                    <path d="M4855.79,2027.27L5005.21,2027.27C5058.72,2027.27 5100.52,2039.43 5130.6,2063.75C5160.68,2088.06 5175.72,2120.92 5175.72,2162.33C5175.72,2191.82 5167.86,2217.26 5152.13,2238.65C5136.41,2260.04 5114.19,2275.81 5085.48,2285.96L5189.78,2466.72L5089.29,2466.72L4992.03,2298.27L4945.44,2298.27L4945.44,2466.72L4855.79,2466.72L4855.79,2027.27ZM4994.66,2223.85C5024.15,2223.85 5046.57,2218.39 5061.9,2207.45C5077.23,2196.51 5084.9,2181.57 5084.9,2162.62C5084.9,2143.68 5077.23,2128.83 5061.9,2118.09C5046.57,2107.35 5024.15,2101.98 4994.66,2101.98L4945.44,2101.98L4945.44,2223.85L4994.66,2223.85Z" style="fill:rgb(87,22,184);fill-rule:nonzero;"/>
                </g>
                <g transform="matrix(1,0,0,1,-294.505,-1544.32)">
                    <path d="M3264.68,2467.31L3151.89,2467.31L3151.89,2027.86L3264.68,2027.86C3351.01,2027.86 3417.61,2046.85 3464.49,2084.84C3511.36,2122.83 3534.8,2176.88 3534.8,2247C3534.8,2317.31 3511.36,2371.61 3464.49,2409.89C3417.61,2448.17 3351.01,2467.31 3264.68,2467.31ZM3191.44,2430.69L3267.61,2430.69C3340.66,2430.69 3396.62,2414.87 3435.48,2383.23C3474.35,2351.59 3493.78,2306.18 3493.78,2247C3493.78,2188.21 3474.3,2143.09 3435.34,2111.65C3396.37,2080.2 3340.46,2064.48 3267.61,2064.48L3191.44,2064.48L3191.44,2430.69Z" style="fill:rgb(87,22,184);fill-rule:nonzero;"/>
                    <path d="M3616.83,2027.27L3863.8,2027.27L3863.8,2063.89L3656.38,2063.89L3656.38,2222.97L3851.79,2222.97L3851.79,2259.6L3656.38,2259.6L3656.38,2430.1L3872.88,2430.1L3872.88,2466.72L3616.83,2466.72L3616.83,2027.27Z" style="fill:rgb(87,22,184);fill-rule:nonzero;"/>
                    <path d="M3951.99,2432.16L3972.2,2397C3986.07,2410.28 4002.38,2420.58 4021.13,2427.91C4039.88,2435.23 4059.41,2438.89 4079.72,2438.89C4100.81,2438.89 4119.56,2435.18 4135.97,2427.76C4152.38,2420.34 4165.22,2410.13 4174.5,2397.14C4183.77,2384.16 4188.41,2369.36 4188.41,2352.76C4188.41,2337.14 4184.46,2323.71 4176.55,2312.48C4168.64,2301.25 4158.09,2291.43 4144.91,2283.03C4131.72,2274.64 4117.32,2266.82 4101.69,2259.6C4086.07,2252.37 4070.44,2244.95 4054.82,2237.33C4039.19,2229.71 4024.79,2221.07 4011.61,2211.4C3998.42,2201.74 3987.87,2190.26 3979.96,2176.98C3972.05,2163.7 3968.1,2147.78 3968.1,2129.22C3968.1,2107.55 3973.81,2088.36 3985.24,2071.66C3996.66,2054.96 4012.48,2041.92 4032.7,2032.55C4052.91,2023.17 4076.3,2018.48 4102.86,2018.48C4136.85,2018.48 4171.22,2026.3 4205.99,2041.92L4189.88,2075.61C4164.29,2061.94 4137.04,2055.1 4108.14,2055.1C4078.65,2055.1 4054.53,2061.89 4035.78,2075.47C4017.03,2089.04 4007.65,2106.57 4007.65,2128.05C4007.65,2142.31 4011.61,2154.62 4019.51,2164.97C4027.43,2175.32 4037.97,2184.6 4051.16,2192.8C4064.34,2201 4078.74,2208.82 4094.37,2216.24C4109.99,2223.66 4125.62,2231.42 4141.24,2239.53C4156.87,2247.63 4171.27,2256.76 4184.46,2266.92C4197.64,2277.08 4208.19,2289.09 4216.1,2302.96C4224.01,2316.82 4227.96,2333.23 4227.96,2352.17C4227.96,2375.81 4221.52,2396.95 4208.63,2415.6C4195.74,2434.25 4178.11,2448.9 4155.75,2459.55C4133.38,2470.19 4107.85,2475.51 4079.13,2475.51C4032.06,2475.51 3989.68,2461.06 3951.99,2432.16Z" style="fill:rgb(87,22,184);fill-rule:nonzero;"/>
                    <rect x="4321.71" y="2027.27" width="39.551" height="439.453" style="fill:rgb(87,22,184);fill-rule:nonzero;"/>
                    <path d="M4443.29,2247C4443.29,2213.6 4448.86,2182.94 4459.99,2155.01C4471.13,2127.08 4486.85,2102.91 4507.16,2082.5C4527.47,2062.09 4551.45,2046.32 4579.09,2035.18C4606.72,2024.05 4636.95,2018.48 4669.76,2018.48C4733.04,2018.48 4785.87,2038.5 4828.26,2078.54L4798.37,2105.79C4764,2072 4721.22,2055.1 4670.05,2055.1C4634.11,2055.1 4602.03,2063.36 4573.81,2079.86C4545.59,2096.36 4523.37,2119.02 4507.16,2147.83C4490.95,2176.64 4482.85,2209.69 4482.85,2247C4482.85,2283.91 4490.85,2316.82 4506.87,2345.73C4522.88,2374.64 4544.76,2397.39 4572.49,2413.99C4600.23,2430.59 4631.58,2438.89 4666.54,2438.89C4698.37,2438.89 4727.08,2431.72 4752.67,2417.36C4778.26,2403 4798.81,2383.33 4814.34,2358.33C4829.87,2333.33 4838.31,2305.01 4839.68,2273.37L4670.64,2273.37L4670.64,2236.74L4879.23,2236.74C4879.82,2244.36 4880.11,2252.27 4880.11,2260.47C4880.11,2302.86 4871.08,2340.21 4853.01,2372.54C4834.94,2404.86 4809.9,2430.1 4777.86,2448.27C4745.83,2466.43 4708.72,2475.51 4666.54,2475.51C4634.31,2475.51 4604.62,2469.9 4577.47,2458.67C4550.33,2447.44 4526.74,2431.57 4506.72,2411.06C4486.7,2390.55 4471.13,2366.38 4459.99,2338.55C4448.86,2310.72 4443.29,2280.2 4443.29,2247Z" style="fill:rgb(87,22,184);fill-rule:nonzero;"/>
                    <path d="M4962.14,2027.27L5001.69,2027.27L5294.95,2403.15L5294.95,2027.27L5334.51,2027.27L5334.51,2466.72L5294.95,2466.72L5001.69,2090.85L5001.69,2466.72L4962.14,2466.72L4962.14,2027.27Z" style="fill:rgb(87,22,184);fill-rule:nonzero;"/>
                </g>
            </g>
        </g>
    </g>
</svg>
